<svg width="67" height="57" viewBox="0 0 67 57" fill="none" xmlns="http://www.w3.org/2000/svg">
<path d="M7.07304 11.6669C12.547 10.8849 15.33 16.6579 15.951 21.0049C16.733 26.5019 17.101 31.7689 19.24 36.9899C23.495 47.3859 32.741 55.9419 44.333 56.3789C51.463 56.6549 51.44 45.5689 44.333 45.3159C32.12 44.8559 28.21 30.8489 27.037 21.0279C26.37 15.3929 25.059 10.2179 20.781 6.16992C16.135 1.77692 10.385 0.120921 4.12904 0.994921C1.13904 1.43192 -0.424964 5.18092 0.265036 7.80292C1.09304 10.9769 4.10604 12.0809 7.07304 11.6669Z" fill="white"/>
<path d="M61.1463 56.3557C64.1568 56.3557 66.5973 53.8535 66.5973 50.7667C66.5973 47.68 64.1568 45.1777 61.1463 45.1777C58.1358 45.1777 55.6953 47.68 55.6953 50.7667C55.6953 53.8535 58.1358 56.3557 61.1463 56.3557Z" fill="white"/>
</svg>
